<mxfile host="app.diagrams.net" agent="Mozilla/5.0 (Windows NT 10.0; Win64; x64) AppleWebKit/537.36 (KHTML, like Gecko) Chrome/135.0.0.0 Safari/537.36" version="26.3.0">
  <diagram name="Page-1" id="PGHH7Cj9nXCG-q8c25Oi">
    <mxGraphModel dx="401" dy="592" grid="1" gridSize="10" guides="1" tooltips="1" connect="1" arrows="1" fold="1" page="1" pageScale="1" pageWidth="827" pageHeight="1169" math="0" shadow="0">
      <root>
        <mxCell id="0" />
        <mxCell id="1" parent="0" />
        <mxCell id="VoGYrRKCqaxyGGuveOrH-15" value="" style="rounded=0;whiteSpace=wrap;html=1;rotation=90;" vertex="1" parent="1">
          <mxGeometry x="170" y="120" width="330" height="290" as="geometry" />
        </mxCell>
        <mxCell id="VoGYrRKCqaxyGGuveOrH-3" value="Oiseau" style="swimlane;fontStyle=1;align=center;verticalAlign=top;childLayout=stackLayout;horizontal=1;startSize=26;horizontalStack=0;resizeParent=1;resizeParentMax=0;resizeLast=0;collapsible=1;marginBottom=0;whiteSpace=wrap;html=1;" vertex="1" parent="1">
          <mxGeometry x="230" y="130" width="210" height="270" as="geometry" />
        </mxCell>
        <mxCell id="VoGYrRKCqaxyGGuveOrH-4" value="- nom : String&lt;div&gt;- taille: Int&lt;/div&gt;&lt;div&gt;- race : String&lt;/div&gt;&lt;div&gt;- couleur : String&lt;/div&gt;&lt;div&gt;- distance : Double&lt;/div&gt;" style="text;strokeColor=none;fillColor=none;align=left;verticalAlign=top;spacingLeft=4;spacingRight=4;overflow=hidden;rotatable=0;points=[[0,0.5],[1,0.5]];portConstraint=eastwest;whiteSpace=wrap;html=1;" vertex="1" parent="VoGYrRKCqaxyGGuveOrH-3">
          <mxGeometry y="26" width="210" height="84" as="geometry" />
        </mxCell>
        <mxCell id="VoGYrRKCqaxyGGuveOrH-5" value="" style="line;strokeWidth=1;fillColor=none;align=left;verticalAlign=middle;spacingTop=-1;spacingLeft=3;spacingRight=3;rotatable=0;labelPosition=right;points=[];portConstraint=eastwest;strokeColor=inherit;" vertex="1" parent="VoGYrRKCqaxyGGuveOrH-3">
          <mxGeometry y="110" width="210" height="8" as="geometry" />
        </mxCell>
        <mxCell id="VoGYrRKCqaxyGGuveOrH-6" value="+ getNom() : String&lt;div&gt;+setNom(nom: String) :&amp;nbsp;&lt;/div&gt;&lt;div&gt;+getTaille() : String&lt;/div&gt;&lt;div&gt;+s&lt;span style=&quot;background-color: transparent; color: light-dark(rgb(0, 0, 0), rgb(255, 255, 255));&quot;&gt;etTaille(taille: Int)&lt;/span&gt;&lt;/div&gt;&lt;div&gt;&lt;div&gt;+getRace() : String&lt;/div&gt;&lt;div&gt;+s&lt;span style=&quot;background-color: transparent; color: light-dark(rgb(0, 0, 0), rgb(255, 255, 255));&quot;&gt;etRace(race: String)&lt;/span&gt;&lt;/div&gt;&lt;/div&gt;&lt;div&gt;&lt;div&gt;+getCouleur() : String&lt;/div&gt;&lt;div&gt;+s&lt;span style=&quot;background-color: transparent; color: light-dark(rgb(0, 0, 0), rgb(255, 255, 255));&quot;&gt;etCouleur(couleur: String)&lt;/span&gt;&lt;/div&gt;&lt;/div&gt;&lt;div&gt;&lt;span style=&quot;background-color: transparent; color: light-dark(rgb(0, 0, 0), rgb(255, 255, 255));&quot;&gt;+getDistance() : Double&lt;/span&gt;&lt;/div&gt;&lt;div&gt;&lt;span style=&quot;background-color: transparent; color: light-dark(rgb(0, 0, 0), rgb(255, 255, 255));&quot;&gt;+setDistance(distance : Double)&lt;/span&gt;&lt;/div&gt;&lt;div&gt;&lt;br&gt;&lt;/div&gt;" style="text;strokeColor=none;fillColor=none;align=left;verticalAlign=top;spacingLeft=4;spacingRight=4;overflow=hidden;rotatable=0;points=[[0,0.5],[1,0.5]];portConstraint=eastwest;whiteSpace=wrap;html=1;" vertex="1" parent="VoGYrRKCqaxyGGuveOrH-3">
          <mxGeometry y="118" width="210" height="152" as="geometry" />
        </mxCell>
      </root>
    </mxGraphModel>
  </diagram>
</mxfile>
